<?xml version="1.0" encoding="UTF-8"?>
<svg id="Layer_1" data-name="Layer 1" xmlns="http://www.w3.org/2000/svg" viewBox="0 0 1994.48 1725">
  <defs>
    <style>
      .cls-1 {
        fill: #4765ab;
      }

      .cls-1, .cls-2, .cls-3 {
        stroke-width: 0px;
      }

      .cls-2 {
        fill: #95629e;
      }

      .cls-3 {
        fill: #414143;
      }
    </style>
  </defs>
  <g>
    <path class="cls-2" d="m784.27,510.96c62.95,118.32,59.68,258.4,54.27,392.31-1.37,34.02-2.76,68.19-9.08,101.64-5,26.48-13.05,52.27-21.08,77.99-31.19,99.93-62.73,200.66-113.63,292.14-18.8,33.8-40.54,67.12-47.78,105.11,7.94,9.91,23.34-.58,31.02-10.7,35.84-47.19,70.38-95.38,103.56-144.48,15.71-23.24,31.11-46.69,45.49-70.78,54.75-91.71,94.34-192.45,116.68-296.9,15.62-73.04,22.82-148.7,11.53-222.53-11.29-73.83-42.08-145.96-94.66-199.01-22.73-22.93-50.45-42.59-82.25-48.19,1.67,10.41,3.13,17.2,5.92,23.39Z"/>
    <path class="cls-1" d="m1207.43,501.98c-62.95,118.32-59.68,258.4-54.27,392.31,1.37,34.02,2.76,68.19,9.08,101.64,5,26.48,13.05,52.27,21.08,77.99,31.19,99.93,62.73,200.66,113.63,292.14,18.8,33.8,40.54,67.12,47.78,105.11-7.94,9.91-23.34-.58-31.02-10.7-35.84-47.19-70.38-95.38-103.56-144.48-15.71-23.24-31.11-46.69-45.49-70.78-54.75-91.71-94.34-192.45-116.68-296.9-15.62-73.04-22.82-148.7-11.53-222.53,11.29-73.83,42.08-145.96,94.66-199.01,22.73-22.93,50.45-42.59,82.25-48.19-1.67,10.41-3.13,17.2-5.92,23.39Z"/>
    <path class="cls-2" d="m814.61,103.59c-6.81,1.84-11.27,8.48-15.76,13.92-18.31,22.18-29.34,50.27-31.03,78.98-1.27,21.54,2.57,43.06,7.6,64.05,3.55,14.84,7.76,29.68,15.05,43.08,7.29,13.4,17.92,25.4,31.68,31.98,7.97,3.81,17.08,5.72,25.75,4.04,9.29-1.81,17.49-7.64,23.39-15.05,5.9-7.41,9.66-16.31,12.3-25.4,10.35-35.72,4.01-73.9-2.73-110.47-2.2-11.91-4.46-23.92-9.01-35.14-8.1-19.95-23.55-36.82-42.71-46.64-4.9-2.51-9.97-4.57-14.52-3.34Z"/>
    <path class="cls-1" d="m1156.37,99.1c6.81,1.84,11.27,8.48,15.76,13.92,18.31,22.18,29.34,50.27,31.03,78.98,1.27,21.54-2.57,43.06-7.6,64.05-3.55,14.84-7.76,29.68-15.05,43.08-7.29,13.4-17.92,25.4-31.68,31.98-7.97,3.81-17.08,5.72-25.75,4.04-9.29-1.81-17.49-7.64-23.39-15.05-5.9-7.41-9.66-16.31-12.3-25.4-10.35-35.72-4.01-73.9,2.73-110.47,2.2-11.91,4.46-23.92,9.01-35.14,8.1-19.95,23.55-36.82,42.71-46.64,4.9-2.51,9.97-4.57,14.52-3.34Z"/>
    <path class="cls-2" d="m420.22,200.32c99.46,124.19,186.79,258.09,260.33,399.19,5.46,10.47,10.84,20.98,16.22,31.48,1.74,3.39,3.65,6.97,6.98,8.84,7,3.92,15.68-1.98,19.84-8.84,8.93-14.72,7.48-33.4,3.9-50.25-10.17-47.92-34.69-91.38-58.87-133.98-10.68-18.82-21.39-37.67-33.96-55.29-10.44-14.63-22.11-28.32-33.76-42-11.65-13.67-23.3-27.35-34.95-41.02-11.13-13.06-22.28-26.15-34.86-37.82-11.94-11.08-25.06-20.78-38.15-30.47-22.69-16.78-46.09-33.91-72.73-39.84Z"/>
    <path class="cls-1" d="m1547.61,200.32c-99.46,124.19-186.79,258.09-260.33,399.19-5.46,10.47-10.84,20.98-16.22,31.48-1.74,3.39-3.65,6.97-6.98,8.84-7,3.92-15.68-1.98-19.84-8.84-8.93-14.72-7.48-33.4-3.9-50.25,10.17-47.92,34.69-91.38,58.87-133.98,10.68-18.82,21.39-37.67,33.96-55.29,10.44-14.63,22.11-28.32,33.76-42,11.65-13.67,23.3-27.35,34.95-41.02,11.13-13.06,22.28-26.15,34.86-37.82,11.94-11.08,25.06-20.78,38.15-30.47,22.69-16.78,46.09-33.91,72.73-39.84Z"/>
    <path class="cls-2" d="m1128.26.05c1.23-.31,2.24.97,1.61,2.07-59.02,103.14-116.49,204.08-159.82,314.79-10.31,26.35-20,53.57-37.57,75.76-3.68,4.64-8.39,9.42-15.07,7.59-2.68-.74-4.98-2.53-6.58-4.8-4-5.69-3.79-12.65-3.11-19.24,2.01-19.57,7.63-38.56,13.22-57.42,9.13-30.78,18.28-61.64,30.7-91.25,26.13-62.34,66.17-117.88,109.29-169.95,19.86-23.98,40.62-50.71,67.34-57.54Z"/>
    <path class="cls-1" d="m854.54.05c-1.23-.31-2.24.97-1.61,2.07,59.02,103.14,116.49,204.08,159.82,314.79,10.31,26.35,20,53.57,37.57,75.76,3.68,4.64,8.39,9.42,15.07,7.59,2.68-.74,4.98-2.53,6.58-4.8,4-5.69,3.79-12.65,3.11-19.24-2.01-19.57-7.63-38.56-13.22-57.42-9.13-30.78-18.28-61.64-30.7-91.25-26.13-62.34-66.17-117.88-109.29-169.95-19.86-23.98-40.62-50.71-67.34-57.54Z"/>
    <path class="cls-2" d="m730.15,1032.83c13.6-20.75,27.63-43.43,26.37-68.21-.49-9.67-4.12-20.14-12.64-24.74-9.1-4.91-20.5-1.47-29.36,3.84-13.93,8.35-24.83,20.86-34.84,33.65-18.81,24.03-35.56,50.03-58.22,70.48-16.64,15.01-36.01,26.61-55.29,38.03-37.07,21.94-74.61,43.72-115.31,57.82-50.69,17.57-104.71,22.73-157.14,34.11-5.3,1.15-10.81,2.48-14.9,6.04-4.09,3.56-6.14,10.07-3.05,14.52,2.46,3.55,7.15,4.65,11.43,5.31,23.95,3.68,48.4,2.09,72.46-.81,137.47-16.54,294.99-54.87,370.5-170.05Z"/>
    <path class="cls-1" d="m1264.33,1032.83c-13.6-20.75-27.63-43.43-26.37-68.21.49-9.67,4.12-20.14,12.64-24.74,9.1-4.91,20.5-1.47,29.36,3.84,13.93,8.35,24.83,20.86,34.84,33.65,18.81,24.03,35.56,50.03,58.22,70.48,16.64,15.01,36.01,26.61,55.29,38.03,37.07,21.94,74.61,43.72,115.31,57.82,50.69,17.57,104.71,22.73,157.14,34.11,5.3,1.15,10.81,2.48,14.9,6.04,4.09,3.56,6.14,10.07,3.05,14.52-2.46,3.55-7.15,4.65-11.43,5.31-23.95,3.68-48.4,2.09-72.46-.81-137.47-16.54-294.99-54.87-370.5-170.05Z"/>
  </g>
  <g>
    <path class="cls-3" d="m107,1664.7c0,11.93-2.21,22.48-6.63,31.66-4.42,9.18-10.71,16.25-18.85,21.21s-17.43,7.43-27.84,7.43-19.65-2.39-27.71-7.18-14.35-11.63-18.85-20.53c-4.51-8.9-6.87-19.12-7.1-30.65v-6.89c0-11.98,2.2-22.55,6.59-31.7,4.39-9.15,10.69-16.22,18.9-21.21,8.2-4.98,17.54-7.47,28.01-7.47s19.6,2.46,27.71,7.39c8.12,4.93,14.43,11.94,18.94,21.04,4.51,9.1,6.79,19.53,6.84,31.28v5.63Zm-29.98-5.12c0-12.15-2.03-21.37-6.09-27.67-4.06-6.3-9.87-9.45-17.43-9.45-14.78,0-22.59,11.09-23.43,33.26l-.08,8.99c0,11.98,1.99,21.19,5.96,27.63,3.97,6.44,9.88,9.66,17.72,9.66s13.19-3.16,17.22-9.49c4.03-6.33,6.07-15.42,6.13-27.29v-5.63Z"/>
    <path class="cls-3" d="m158.04,1700.65h51.31v22.68h-80.79v-122.28h29.48v99.61Z"/>
    <path class="cls-3" d="m322.04,1601.04v80.04c0,9.07-1.93,16.92-5.79,23.56s-9.41,11.69-16.63,15.16c-7.22,3.47-15.76,5.21-25.62,5.21-14.89,0-26.62-3.86-35.19-11.59s-12.93-18.31-13.1-31.75v-80.62h29.65v81.21c.34,13.38,6.55,20.07,18.64,20.07,6.1,0,10.72-1.68,13.86-5.04,3.13-3.36,4.7-8.82,4.7-16.38v-79.87h29.48Z"/>
    <path class="cls-3" d="m376.28,1681.83v41.49h-29.48v-122.28h48.79c9.35,0,17.62,1.72,24.82,5.17,7.19,3.44,12.77,8.34,16.71,14.7,3.95,6.36,5.92,13.56,5.92,21.63,0,11.93-4.27,21.46-12.81,28.6-8.54,7.14-20.25,10.71-35.15,10.71h-18.81Zm0-22.76h19.32c5.71,0,10.06-1.43,13.06-4.28,2.99-2.86,4.49-6.89,4.49-12.09,0-5.71-1.54-10.27-4.62-13.69-3.08-3.41-7.28-5.15-12.6-5.21h-19.65v35.27Z"/>
    <path class="cls-3" d="m568.67,1664.7c0,11.93-2.21,22.48-6.63,31.66-4.42,9.18-10.71,16.25-18.85,21.21s-17.43,7.43-27.84,7.43-19.65-2.39-27.71-7.18-14.35-11.63-18.85-20.53c-4.51-8.9-6.87-19.12-7.1-30.65v-6.89c0-11.98,2.2-22.55,6.59-31.7,4.39-9.15,10.69-16.22,18.9-21.21,8.2-4.98,17.54-7.47,28.01-7.47s19.6,2.46,27.71,7.39c8.12,4.93,14.43,11.94,18.94,21.04,4.51,9.1,6.79,19.53,6.84,31.28v5.63Zm-29.98-5.12c0-12.15-2.03-21.37-6.09-27.67-4.06-6.3-9.87-9.45-17.43-9.45-14.78,0-22.59,11.09-23.43,33.26l-.08,8.99c0,11.98,1.99,21.19,5.96,27.63,3.97,6.44,9.88,9.66,17.72,9.66s13.19-3.16,17.22-9.49c4.03-6.33,6.07-15.42,6.13-27.29v-5.63Z"/>
    <path class="cls-3" d="m692.36,1723.32h-29.31l-43.34-76.09v76.09h-29.48v-122.28h29.48l43.25,76.09v-76.09h29.39v122.28Z"/>
    <path class="cls-3" d="m788.33,1700.48h-40.4l-7.05,22.84h-31.49l44.85-122.28h27.71l45.18,122.28h-31.66l-7.14-22.84Zm-33.34-22.76h26.29l-13.19-42.41-13.1,42.41Z"/>
    <path class="cls-3" d="m968.61,1674.61h-47.54v48.71h-29.48v-122.28h81.8v22.76h-52.32v28.13h47.54v22.68Z"/>
    <path class="cls-3" d="m1095.58,1664.7c0,11.93-2.21,22.48-6.63,31.66-4.42,9.18-10.71,16.25-18.85,21.21s-17.43,7.43-27.84,7.43-19.65-2.39-27.71-7.18-14.35-11.63-18.85-20.53c-4.51-8.9-6.87-19.12-7.1-30.65v-6.89c0-11.98,2.2-22.55,6.59-31.7,4.39-9.15,10.69-16.22,18.9-21.21,8.2-4.98,17.54-7.47,28.01-7.47s19.6,2.46,27.71,7.39c8.12,4.93,14.43,11.94,18.94,21.04,4.51,9.1,6.79,19.53,6.84,31.28v5.63Zm-29.98-5.12c0-12.15-2.03-21.37-6.09-27.67-4.06-6.3-9.87-9.45-17.43-9.45-14.78,0-22.59,11.09-23.43,33.26l-.08,8.99c0,11.98,1.99,21.19,5.96,27.63,3.97,6.44,9.88,9.66,17.72,9.66s13.19-3.16,17.22-9.49c4.03-6.33,6.07-15.42,6.13-27.29v-5.63Z"/>
    <path class="cls-3" d="m1213.05,1601.04v80.04c0,9.07-1.93,16.92-5.79,23.56s-9.41,11.69-16.63,15.16c-7.22,3.47-15.76,5.21-25.62,5.21-14.89,0-26.62-3.86-35.19-11.59s-12.93-18.31-13.1-31.75v-80.62h29.65v81.21c.34,13.38,6.55,20.07,18.64,20.07,6.1,0,10.72-1.68,13.86-5.04,3.13-3.36,4.7-8.82,4.7-16.38v-79.87h29.48Z"/>
    <path class="cls-3" d="m1339.93,1723.32h-29.31l-43.34-76.09v76.09h-29.48v-122.28h29.48l43.25,76.09v-76.09h29.39v122.28Z"/>
    <path class="cls-3" d="m1364.94,1723.32v-122.28h39.39c10.8,0,20.52,2.45,29.14,7.35,8.62,4.9,15.35,11.81,20.2,20.74,4.84,8.93,7.29,18.94,7.35,30.02v5.63c0,11.2-2.37,21.24-7.1,30.11-4.73,8.88-11.39,15.82-19.99,20.83-8.6,5.01-18.18,7.55-28.76,7.6h-40.23Zm29.48-99.52v76.85h10.25c8.45,0,14.95-3.01,19.48-9.03,4.54-6.02,6.8-14.96,6.8-26.83v-5.29c0-11.81-2.27-20.71-6.8-26.71-4.54-5.99-11.14-8.99-19.82-8.99h-9.91Z"/>
    <path class="cls-3" d="m1550.19,1700.48h-40.4l-7.05,22.84h-31.49l44.85-122.28h27.71l45.18,122.28h-31.66l-7.14-22.84Zm-33.34-22.76h26.29l-13.19-42.41-13.1,42.41Z"/>
    <path class="cls-3" d="m1690.17,1623.8h-36.7v99.52h-29.48v-99.52h-36.03v-22.76h102.21v22.76Z"/>
    <path class="cls-3" d="m1740.38,1723.32h-29.39v-122.28h29.39v122.28Z"/>
    <path class="cls-3" d="m1870.79,1664.7c0,11.93-2.21,22.48-6.63,31.66-4.42,9.18-10.71,16.25-18.85,21.21s-17.43,7.43-27.84,7.43-19.65-2.39-27.71-7.18-14.35-11.63-18.85-20.53c-4.51-8.9-6.87-19.12-7.1-30.65v-6.89c0-11.98,2.2-22.55,6.59-31.7,4.39-9.15,10.69-16.22,18.9-21.21,8.2-4.98,17.54-7.47,28.01-7.47s19.6,2.46,27.71,7.39c8.12,4.93,14.43,11.94,18.94,21.04,4.51,9.1,6.79,19.53,6.84,31.28v5.63Zm-29.98-5.12c0-12.15-2.03-21.37-6.09-27.67-4.06-6.3-9.87-9.45-17.43-9.45-14.78,0-22.59,11.09-23.43,33.26l-.08,8.99c0,11.98,1.99,21.19,5.96,27.63,3.97,6.44,9.88,9.66,17.72,9.66s13.19-3.16,17.22-9.49c4.03-6.33,6.07-15.42,6.13-27.29v-5.63Z"/>
    <path class="cls-3" d="m1994.48,1723.32h-29.31l-43.34-76.09v76.09h-29.48v-122.28h29.48l43.25,76.09v-76.09h29.39v122.28Z"/>
  </g>
</svg>